<svg width="48" height="24" viewBox="0 0 48 24" fill="none" xmlns="http://www.w3.org/2000/svg">

<path d="M37.9827 13.512V17.8656C37.9827 19.8831 37.8274 21.3962 37.5169 22.405C37.2236 23.4314 36.7836 23.9623 36.197 23.9977C35.8002 24.0331 35.5069 23.6526 35.3171 22.8563C35.1274 22.0599 35.0325 20.8653 35.0325 19.2725V13.5916C34.2216 13.6093 33.4883 13.6359 32.8327 13.6713C32.1771 13.689 31.6164 13.7155 31.1506 13.7509C30.9953 13.7686 30.8486 13.7952 30.7106 13.8306C30.5899 13.866 30.4691 13.9013 30.3483 13.9367C30.2448 13.9721 30.1327 14.0164 30.0119 14.0695C29.9084 14.1049 29.8048 14.1403 29.7013 14.1757C29.4425 14.2818 29.1579 14.3703 28.8473 14.4411C28.5368 14.4942 28.1744 14.4411 27.7604 14.2818C27.4326 14.1757 27.0358 14.0252 26.5699 13.8306C26.1041 13.6182 25.6383 13.3793 25.1724 13.1138C24.5513 12.7422 24.3012 12.4059 24.4219 12.1051C24.5427 11.8042 24.9395 11.698 25.6124 11.7865C26.1817 11.875 26.8891 11.9458 27.7345 11.9989C28.5799 12.052 29.5806 12.0785 30.7365 12.0785C31.7717 12.0785 32.7637 12.0874 33.7126 12.1051C34.6788 12.1051 35.5759 12.1051 36.4041 12.1051C37.2322 12.1051 37.9741 12.1051 38.6297 12.1051C39.3026 12.0874 39.8719 12.0608 40.3377 12.0254C40.8381 12.0077 41.2521 11.9812 41.5799 11.9458C41.925 11.9104 42.1838 11.8573 42.3563 11.7865C42.4253 11.7688 42.5116 11.7334 42.6151 11.6803C42.7186 11.6272 42.8308 11.583 42.9515 11.5476C43.0723 11.5122 43.1845 11.4768 43.288 11.4414C43.4087 11.406 43.5209 11.3795 43.6244 11.3618C44.1593 11.3264 44.72 11.3264 45.3066 11.3618C45.8932 11.3795 46.4194 11.4414 46.8852 11.5476C47.2475 11.6361 47.5236 11.7688 47.7133 11.9458C47.9204 12.1051 48.0153 12.3174 47.998 12.5829C47.9635 12.9191 47.8169 13.1669 47.5581 13.3262C47.3165 13.4855 46.9974 13.5651 46.6005 13.5651C46.3072 13.5651 45.9622 13.5651 45.5654 13.5651C45.1858 13.5474 44.7717 13.5385 44.3232 13.5385C43.8918 13.5209 43.426 13.512 42.9257 13.512C42.4426 13.4943 41.9509 13.4855 41.4505 13.4855C40.933 13.4855 40.3895 13.4943 39.8201 13.512C39.2508 13.512 38.6383 13.512 37.9827 13.512ZM32.2375 2.97317V6.15871C32.2375 6.47727 32.3497 6.69848 32.5739 6.82237C32.7982 6.94625 33.0139 7.00819 33.2209 7.00819L38.2156 6.92855C38.4227 6.92855 38.716 6.91085 39.0955 6.87546C39.4923 6.82237 39.846 6.68963 40.1566 6.47727C40.2601 6.42417 40.3809 6.37993 40.5189 6.34454C40.6742 6.29144 40.8639 6.25605 41.0882 6.23835C41.4505 6.22065 41.8474 6.22065 42.2787 6.23835C42.7273 6.25605 43.0809 6.28259 43.3397 6.31799C43.7538 6.40648 44.0557 6.56575 44.2455 6.79582C44.4353 7.02589 44.5129 7.2648 44.4784 7.51257C44.4612 7.74263 44.3404 7.955 44.1161 8.14967C43.8918 8.34435 43.5727 8.44168 43.1586 8.44168L31.9528 8.54787C31.6078 8.54787 31.2713 8.53017 30.9435 8.49477C30.633 8.44168 30.3483 8.34435 30.0895 8.20277C29.848 8.06119 29.6496 7.86652 29.4943 7.61875C29.339 7.37099 29.2614 7.04358 29.2614 6.63654V3.05281C29.2614 2.78735 29.2269 2.54843 29.1579 2.33606C29.1061 2.106 29.0026 1.92902 28.8473 1.80514C28.6575 1.66356 28.3815 1.54853 28.0192 1.46004C27.6741 1.35385 27.3291 1.27422 26.984 1.22112C26.8632 1.22112 26.7683 1.15918 26.6993 1.0353C26.6476 0.89372 26.6303 0.752141 26.6476 0.610562C26.6476 0.468982 26.6907 0.336251 26.777 0.212368C26.8632 0.0884865 27.0013 0.0176972 27.191 0C27.4671 0 27.8294 0.00884843 28.278 0.0265457C28.7265 0.0265457 29.1924 0.0353943 29.6755 0.0530915C30.1413 0.088487 30.5899 0.132731 31.0212 0.185822C31.4525 0.238915 31.8062 0.292007 32.0822 0.345099C32.2375 0.398192 32.3324 0.530923 32.3669 0.743293C32.4187 0.937964 32.4187 1.12379 32.3669 1.30076C32.3151 1.51313 32.2806 1.77859 32.2634 2.09715C32.2461 2.4157 32.2375 2.70771 32.2375 2.97317Z" fill="currentColor"/>
<path d="M14.289 12.9015V14.0695C14.3063 15.7684 14.1165 17.0073 13.7197 17.786C13.3401 18.5646 12.926 18.9628 12.4774 18.9805C12.1324 19.0159 11.8822 18.7416 11.7269 18.1576C11.5717 17.5736 11.494 16.5825 11.494 15.1844V12.9545C10.5106 12.9722 9.60484 12.9988 8.7767 13.0342C7.96582 13.0696 7.29296 13.105 6.75812 13.1404C6.60284 13.1581 6.45619 13.1846 6.31817 13.22C6.1974 13.2554 6.07663 13.2908 5.95586 13.3262C5.83509 13.3616 5.72294 13.4058 5.61943 13.4589C5.51591 13.4943 5.41239 13.5297 5.30887 13.5651C5.05008 13.6713 4.76541 13.7598 4.45486 13.8306C4.1443 13.8837 3.78199 13.8306 3.36792 13.6713C3.04012 13.5651 2.6433 13.4147 2.17747 13.22C1.71165 13.0076 1.24582 12.7687 0.779991 12.5033C0.158887 12.1316 -0.0912798 11.7954 0.0294904 11.4945C0.150261 11.1937 0.547077 11.0875 1.21994 11.176C1.78928 11.2644 2.49665 11.3352 3.34204 11.3883C4.18744 11.4414 5.1881 11.468 6.34405 11.468C7.37922 11.468 8.38851 11.4768 9.37193 11.4945C10.3726 11.4945 11.3129 11.4945 12.1928 11.4945C13.0727 11.4945 13.8663 11.4945 14.5737 11.4945C15.281 11.4768 15.8676 11.4503 16.3335 11.4149C16.8511 11.3972 17.2738 11.3706 17.6016 11.3352C17.9466 11.2998 18.1968 11.2467 18.3521 11.176C18.4211 11.1583 18.5073 11.1229 18.6108 11.0698C18.7316 11.0167 18.8438 10.9724 18.9473 10.937C19.0681 10.9016 19.1802 10.8663 19.2837 10.8309C19.4045 10.7955 19.5166 10.7689 19.6201 10.7512C20.1722 10.7158 20.733 10.7158 21.3023 10.7512C21.8889 10.7689 22.4237 10.8309 22.9068 10.937C23.2519 11.0255 23.5279 11.1583 23.735 11.3352C23.942 11.4945 24.0283 11.7069 23.9937 11.9723C23.9592 12.3086 23.8212 12.5564 23.5797 12.7156C23.3381 12.8749 23.0103 12.9545 22.5963 12.9545C22.303 12.9545 21.9665 12.9545 21.587 12.9545C21.2074 12.9369 20.7933 12.928 20.3448 12.928C19.9134 12.9103 19.4476 12.9015 18.9473 12.9015C18.4642 12.8838 17.9725 12.8749 17.4722 12.8749C17.0063 12.8749 16.506 12.8838 15.9712 12.9015C15.4536 12.9015 14.8929 12.9015 14.289 12.9015ZM8.9061 18.3965V20.414C8.9061 20.7326 9.00962 20.9538 9.21665 21.0777C9.42369 21.2016 9.63935 21.2635 9.86364 21.2635L14.3408 21.2104C14.6341 21.2104 14.9532 21.1839 15.2983 21.1308C15.6434 21.0777 15.9712 20.9449 16.2817 20.7326C16.3335 20.6795 16.4111 20.6352 16.5146 20.5998C16.6181 20.5645 16.7303 20.5379 16.8511 20.5202C17.2306 20.4848 17.7137 20.4671 18.3003 20.4671C18.9041 20.4848 19.3527 20.5114 19.646 20.5468C20.0601 20.6175 20.3534 20.768 20.5259 20.998C20.7157 21.2281 20.8106 21.4493 20.8106 21.6617C20.7933 21.9272 20.6639 22.1572 20.4224 22.3519C20.1809 22.5466 19.8531 22.6439 19.439 22.6439L8.62143 22.7501C8.29362 22.7501 7.97444 22.7235 7.66389 22.6704C7.35334 22.6351 7.07729 22.5377 6.83575 22.3784C6.57696 22.2369 6.36993 22.0422 6.21465 21.7944C6.07663 21.5467 6.00762 21.2193 6.00762 20.8122V18.6354C6.00762 18.4231 5.98174 18.2107 5.92998 17.9983C5.87822 17.7683 5.76608 17.6001 5.59355 17.4939C5.36926 17.3701 5.11909 17.2727 4.84305 17.2019C4.567 17.1134 4.24782 17.0427 3.88551 16.9896C3.74749 16.9719 3.6526 16.9099 3.60084 16.8037C3.56633 16.6799 3.55771 16.556 3.57496 16.4321C3.60946 16.2905 3.66985 16.1666 3.75611 16.0605C3.85963 15.9543 3.99765 15.8835 4.17018 15.8481C4.35997 15.8304 4.67052 15.8215 5.10184 15.8215C5.53316 15.8215 5.98174 15.8304 6.44757 15.8481C6.93065 15.8658 7.38785 15.8923 7.81917 15.9277C8.26774 15.9631 8.59555 16.0074 8.80258 16.0605C8.9061 16.1135 8.98374 16.2197 9.0355 16.379C9.10451 16.5383 9.11314 16.6976 9.06138 16.8568C8.99236 17.0692 8.94923 17.3258 8.93198 17.6267C8.91473 17.9275 8.9061 18.1841 8.9061 18.3965ZM8.41439 3.07937V6.10564C8.41439 6.42419 8.52654 6.64541 8.75082 6.76929C8.97511 6.89317 9.1994 6.95511 9.42369 6.95511L13.8232 6.87548C14.0302 6.87548 14.3235 6.85778 14.7031 6.82238C15.0999 6.76929 15.4622 6.63656 15.79 6.42419C15.8935 6.3711 16.0143 6.32685 16.1523 6.29146C16.3076 6.23837 16.4974 6.20297 16.7217 6.18527C17.084 6.16758 17.4808 6.16758 17.9121 6.18527C18.3607 6.20297 18.7144 6.22952 18.9732 6.26491C19.3872 6.3534 19.6805 6.51268 19.8531 6.74274C20.0428 6.97281 20.1291 7.21173 20.1118 7.45949C20.0946 7.68956 19.9738 7.90193 19.7495 8.0966C19.5253 8.29127 19.2061 8.38861 18.792 8.38861L8.1556 8.49479C7.81054 8.51249 7.47411 8.49479 7.14631 8.4417C6.83575 8.38861 6.55108 8.29127 6.29229 8.14969C6.05075 8.00811 5.85234 7.81344 5.69706 7.56568C5.54179 7.31791 5.46415 6.99051 5.46415 6.58347V3.15901C5.46415 2.89355 5.42964 2.65463 5.36063 2.44226C5.29162 2.2122 5.17948 2.03522 5.0242 1.91134C4.85167 1.76976 4.58425 1.65473 4.22194 1.56624C3.87688 1.46006 3.5232 1.38042 3.16089 1.32732C3.04012 1.32732 2.95385 1.26538 2.9021 1.1415C2.85034 0.999921 2.83308 0.858342 2.85034 0.716763C2.85034 0.575183 2.89347 0.442452 2.97973 0.318569C3.066 0.194688 3.20402 0.123898 3.3938 0.106201C3.66985 0.106201 4.03216 0.11505 4.48074 0.132747C4.92931 0.132747 5.38651 0.141596 5.85234 0.159293C6.31817 0.194687 6.76674 0.238931 7.19806 0.292024C7.64664 0.345116 8.00895 0.398208 8.285 0.4513C8.44027 0.504393 8.53516 0.637124 8.56967 0.849494C8.60417 1.04417 8.59555 1.22999 8.54379 1.40696C8.49203 1.61933 8.45753 1.88479 8.44027 2.20335C8.42302 2.5219 8.41439 2.81391 8.41439 3.07937Z" fill="currentColor"/>
</svg>
